<?xml version="1.0" encoding="UTF-8" standalone="no"?>

<!-- Created with PainterSVG V3.92 -->

<svg  xmlns="http://www.w3.org/2000/svg" xmlns:xlink="http://www.w3.org/1999/xlink" xmlns:psvg="http://www.paintersvg.com/namespace.html" id="svg"  width="512" height="512" viewBox="0 0 512 512">
<defs></defs>
<g psvg:layer="layer1">
<g id="group10">
<g id="group7" transform="matrix(1.1675,0,0,1.1675,-27.9695,-56.5159)">
<path id="path6" d=" M 51.4698,182.5127 436.7825,182.5127 C 439.1936,182.5127 441.1663,184.9238 441.1663,186.8965 L 441.1663,200.0481 C 441.1663,202.0208 438.7552,204.4319 436.7825,204.4319 L 51.4698,204.4319 C 49.497,204.4319 47.0859,202.0208 47.0859,200.0481 L 47.0859,186.8965 C 47.0859,184.9238 49.497,182.5127 51.4698,182.5127 Z" style="fill:#8833FF;fill-opacity:1;stroke:#CCCCCC;stroke-width:0;stroke-opacity:1;stroke-linecap:butt;stroke-miterlimit:4;stroke-dashoffset:0;" transform="matrix(1,0,0,1,0,0)"/>
<path d=" M 51.4698,323.0146 436.7825,323.0146 C 439.1936,323.0146 441.1663,325.4258 441.1663,327.3985 L 441.1663,340.55 C 441.1663,342.5228 438.7552,344.9339 436.7825,344.9339 L 51.4698,344.9339 C 49.4971,344.9339 47.0859,342.5228 47.0859,340.55 L 47.0859,327.3985 C 47.0859,325.4258 49.4971,323.0146 51.4698,323.0146 Z" style="fill:#8833FF;fill-opacity:1;stroke:#CCCCCC;stroke-width:0;stroke-opacity:1;stroke-linecap:butt;stroke-miterlimit:4;stroke-dashoffset:0;"/>
</g>
<g transform="matrix(-0.0072,1.1674,-1.1674,-0.0072,565.0879,-27.3181)">
<path d=" M 51.4698,182.5127 436.7825,182.5127 C 439.1936,182.5127 441.1663,184.9238 441.1663,186.8965 L 441.1663,200.0481 C 441.1663,202.0208 438.7552,204.4319 436.7825,204.4319 L 51.4698,204.4319 C 49.497,204.4319 47.0859,202.0208 47.0859,200.0481 L 47.0859,186.8965 C 47.0859,184.9238 49.497,182.5127 51.4698,182.5127 Z" style="fill:#8833FF;fill-opacity:1;stroke:#CCCCCC;stroke-width:0;stroke-opacity:1;stroke-linecap:butt;stroke-miterlimit:4;stroke-dashoffset:0;"/>
<path d=" M 51.4698,323.0146 436.7825,323.0146 C 439.1936,323.0146 441.1663,325.4258 441.1663,327.3985 L 441.1663,340.55 C 441.1663,342.5228 438.7552,344.9339 436.7825,344.9339 L 51.4698,344.9339 C 49.4971,344.9339 47.0859,342.5228 47.0859,340.55 L 47.0859,327.3985 C 47.0859,325.4258 49.4971,323.0146 51.4698,323.0146 Z" style="fill:#8833FF;fill-opacity:1;stroke:#CCCCCC;stroke-width:0;stroke-opacity:1;stroke-linecap:butt;stroke-miterlimit:4;stroke-dashoffset:0;"/>
</g>
</g>
</g>
</svg>
